<?xml version="1.0" encoding="UTF-8"?>
<svg id="Layer_1" data-name="Layer 1" xmlns="http://www.w3.org/2000/svg" viewBox="0 0 358.19 335.09">
  <defs>
    <style>
      .cls-1 {
        fill: #00c369;
      }

      .cls-2 {
        fill: #00954c;
      }
    </style>
  </defs>
  <polygon class="cls-2" points="142.63 167.54 128.77 171.79 50.97 198.99 82.05 228.77 157.52 198.99 129.28 273.44 147.25 287.4 172.92 207.21 176.51 199.51 142.63 167.54"/>
  <polygon class="cls-1" points="307.22 204.13 212.96 171.79 293.57 130.2 279.19 106.58 199.62 140.47 229.91 58.33 200.13 47.68 169.33 127.63 139.55 59.87 106.95 71.16 139.55 143.04 74.35 118.39 63.57 148.68 128.77 171.79 142.63 167.54 176.51 199.51 172.92 207.21 190.79 255.47 221.18 242.12 201.16 198.99 294.59 235.45 307.22 204.13"/>
</svg>