<?xml version="1.0" encoding="UTF-8"?>
<svg id="Layer_1" data-name="Layer 1" xmlns="http://www.w3.org/2000/svg" viewBox="0 0 1727.64 383.96">
  <defs>
    <style>
      .cls-1 {
        fill: #00c369;
      }

      .cls-2 {
        fill: #fff;
      }

      .cls-3 {
        fill: #00954c;
      }
    </style>
  </defs>
  <g>
    <polygon class="cls-3" points="167.7 191.98 153.84 196.22 76.04 223.43 107.12 253.21 182.59 223.43 154.36 297.87 172.32 311.84 197.99 231.65 201.59 223.95 167.7 191.98"/>
    <polygon class="cls-1" points="332.3 228.57 238.04 196.22 318.64 154.64 304.27 131.02 224.69 164.91 254.98 82.76 225.2 72.12 194.4 152.07 164.62 84.3 132.02 95.6 164.62 167.47 99.42 142.83 88.64 173.12 153.84 196.22 167.7 191.98 201.59 223.95 197.99 231.65 215.86 279.9 246.25 266.56 226.23 223.43 319.67 259.88 332.3 228.57"/>
  </g>
  <g>
    <path class="cls-2" d="M378.88,259.38l61.31-134.79h74.74l55.85,134.79h-64.24l-46.61-107.49-46.19,107.49s-36.53,0-34.85,0Z"/>
    <path class="cls-2" d="M591.77,259.38s0-22.67,0-22.67c19.41,0,38.83.18,58.24.16,12.21-.01,28.14,4.42,39.46-1.88,7.22-4.01,10.22-12.89,6.26-20.29-5.28-9.87-15.53-7.38-24.76-7.38-13.93,0-28.99,2.18-43.03-1.1-13.27-3.1-22.9-15.16-28.85-26.87-6.35-12.5-2.14-27.94,5.98-38.57,9.54-12.5,20.89-16.51,35.66-16.19,27.53.6,55.14,0,82.68,0h25.83v27.29l-91.54-1.26s-26.45,15.54,0,34.85h31.61c15.66,0,32.5-3.22,44.78,8.58,9.78,9.4,17.91,22.5,14.48,36.49-2.37,9.66-13.24,28.85-24.24,28.83-44.18-.09-88.37,0-132.55,0Z"/>
    <path class="cls-2" d="M771.06,124.59v27.71h52.91v107.07h52.07v-107.07h55.01v-27.71s-161.24,0-159.98,0Z"/>
    <path class="cls-2" d="M954.56,124.59h158.3v27.29h-107.07v32.75h78.52v22.67h-78.1v31.91h106.65v20.16h-158.3s0-136.47,0-134.79Z"/>
    <path class="cls-2" d="M1135.54,124.59v134.79h51.23s0-109.38,0-109.59c.01-2.83,35.71-1.94,39.04-1.23,13.54,2.91,24.92,18.45,14.39,31.58-2.73,3.4-6.96,5.32-11.25,6.1-2.45.44-30.43.62-30.42.5l-.42,24.35,45.3,48.29h48.34l-53.33-49.13s56.69-2.94,56.69-41.57c0,0-3.36-44.09-33.59-44.09h-125.97Z"/>
    <polygon class="cls-2" points="1301.82 124.59 1362.28 124.59 1400.91 202.89 1443.74 124.59 1471.46 124.59 1420.65 217.81 1420.65 259.38 1349.69 259.38 1349.69 219.91 1301.82 124.59"/>
    <polygon class="cls-2" points="1486.57 124.59 1552.08 124.59 1579.79 167.84 1621.36 124.59 1651.6 124.59 1596.59 184.22 1649.08 259.38 1578.95 259.38 1554.18 223.69 1520.17 259.38 1483.64 259.38 1539.06 204.79 1486.57 124.59"/>
  </g>
</svg>